<?xml version="1.0" standalone="no"?>
<!DOCTYPE svg PUBLIC "-//W3C//DTD SVG 20010904//EN"
 "http://www.w3.org/TR/2001/REC-SVG-20010904/DTD/svg10.dtd">
<svg version="1.0" xmlns="http://www.w3.org/2000/svg"
 width="260.000000pt" height="260.000000pt" viewBox="0 0 260.000000 260.000000"
 preserveAspectRatio="xMidYMid meet">
<metadata>
Created by potrace 1.14, written by Peter Selinger 2001-2017
</metadata>
<g transform="translate(0.000000,260.000000) scale(0.100000,-0.100000)"
fill="#000000" stroke="none">
<path d="M606 2268 c3 -4 -6 -8 -19 -8 -27 0 -89 -19 -97 -30 -8 -11 -54 -35
-62 -32 -5 1 -8 -3 -8 -10 0 -6 -3 -9 -6 -5 -4 3 -15 -4 -25 -16 -10 -12 -18
-18 -19 -12 0 24 -50 -86 -54 -121 -2 -22 -5 -41 -6 -44 -9 -24 36 -180 52
-180 4 0 8 -7 8 -15 0 -9 8 -19 18 -22 9 -4 45 -24 80 -45 34 -21 62 -36 62
-33 0 7 118 -54 176 -91 79 -50 92 -89 54 -152 -23 -37 -76 -73 -96 -65 -8 3
-14 1 -14 -3 0 -5 -14 -9 -30 -10 -17 -1 -30 3 -30 8 0 5 -4 6 -10 3 -15 -10
-70 -14 -70 -6 0 4 -10 7 -22 6 -13 -1 -34 3 -48 10 -86 44 -128 51 -116 19 3
-8 1 -14 -4 -14 -5 0 -5 -12 -2 -27 4 -16 7 -45 7 -65 -1 -34 2 -39 33 -49 18
-6 39 -12 45 -13 7 -1 17 -4 22 -7 34 -18 345 -15 345 3 0 5 3 7 8 6 23 -6 73
17 110 51 23 21 43 36 45 34 3 -2 16 21 31 51 23 47 26 64 22 123 -4 70 -20
124 -46 159 -26 35 -106 90 -187 128 -43 21 -90 44 -104 52 -14 7 -29 11 -33
7 -3 -3 -6 -1 -6 5 0 7 -6 12 -14 12 -17 0 -74 57 -82 83 -14 43 50 158 78
141 6 -4 14 -1 18 6 5 9 27 13 62 12 51 -2 103 -7 103 -11 0 -1 16 -4 35 -7
19 -2 54 -13 77 -24 67 -32 71 -29 68 43 -1 34 -3 68 -4 74 -2 23 -76 63 -136
74 -71 13 -216 18 -209 7z"/>
<path d="M1053 1545 c3 -24 0 -35 -9 -35 -7 0 -15 -4 -18 -9 -3 -5 2 -8 12 -7
9 0 18 -6 18 -14 1 -8 2 -23 3 -32 1 -16 14 -18 116 -18 63 0 115 -3 116 -7 0
-5 2 -18 3 -30 2 -13 -2 -23 -8 -23 -6 0 -6 -4 2 -12 7 -7 8 -17 1 -30 -7 -13
-6 -18 3 -18 6 0 3 -7 -8 -16 -10 -8 -14 -13 -8 -10 20 10 24 -20 7 -45 -9
-12 -11 -19 -5 -15 15 9 16 -9 2 -34 -7 -13 -7 -21 2 -26 6 -4 8 -3 4 4 -3 6
-2 13 3 16 14 9 5 -52 -10 -71 -12 -14 -12 -16 0 -8 11 6 13 2 7 -19 -4 -16
-3 -25 2 -22 14 9 6 -52 -9 -71 -10 -11 -10 -14 -1 -9 15 9 16 -8 2 -34 -7
-13 -7 -21 2 -26 6 -4 8 -3 4 4 -3 6 -2 13 3 16 14 9 5 -52 -10 -71 -10 -11
-10 -14 -1 -9 15 9 16 -8 2 -34 -7 -13 -7 -21 2 -26 6 -4 8 -3 4 4 -3 6 -2 13
3 16 5 4 8 -2 6 -11 -2 -10 -4 -22 -4 -26 -1 -5 -7 -5 -13 -2 -7 4 -2 -3 12
-14 20 -16 39 -21 91 -21 72 0 85 5 66 28 -9 13 -9 14 1 8 7 -4 12 -1 12 9 0
10 -5 13 -12 9 -7 -5 -8 -3 -2 7 5 8 7 22 5 33 -2 13 1 16 11 10 10 -6 11 -5
1 7 -11 14 -11 67 2 111 4 17 4 19 -3 9 -7 -10 -10 -4 -10 22 0 20 -3 40 -6
46 -4 5 -1 13 5 17 8 4 9 3 5 -4 -4 -7 -3 -12 3 -12 5 0 9 9 8 19 0 11 -4 18
-8 15 -4 -2 -9 5 -12 16 -3 11 0 23 5 27 7 3 8 1 4 -5 -4 -7 -3 -12 3 -12 5 0
9 9 8 20 -1 14 -6 19 -17 15 -11 -5 -12 -3 -3 5 7 8 8 22 3 41 -6 18 -5 31 2
35 7 4 8 2 4 -4 -4 -7 -2 -12 3 -12 14 0 14 17 1 25 -8 5 -7 12 2 23 10 12 10
14 1 8 -7 -4 -13 -3 -13 1 0 5 6 15 13 22 10 11 9 12 -2 6 -11 -6 -13 -4 -8 8
3 9 2 30 -3 46 -6 20 -5 33 2 37 7 4 8 2 4 -4 -4 -7 -3 -12 3 -12 5 0 9 9 8
19 0 11 -5 17 -10 14 -5 -3 -7 2 -5 12 3 15 16 17 126 16 l122 -2 0 75 0 76
-325 0 -325 0 3 -35z"/>
<path d="M1028 1543 c7 -3 16 -2 19 1 4 3 -2 6 -13 5 -11 0 -14 -3 -6 -6z"/>
<path d="M1036 1474 c-8 -20 -8 -24 2 -24 4 0 8 9 9 20 2 24 -3 26 -11 4z"/>
<path d="M1620 1090 c0 -16 73 -150 82 -150 5 0 7 -4 3 -9 -3 -5 2 -16 10 -24
11 -12 12 -17 2 -20 -8 -4 -7 -6 3 -6 14 -1 32 -24 63 -84 7 -12 22 -36 33
-52 12 -17 20 -40 18 -53 -4 -22 -10 -32 -42 -67 -7 -8 -10 -15 -5 -15 4 0 3
-4 -2 -8 -17 -12 -70 -87 -67 -94 1 -5 -2 -8 -7 -8 -5 0 -20 -17 -32 -37 -13
-21 -26 -40 -30 -43 -3 -3 -16 -24 -28 -48 l-21 -42 47 -1 c27 -1 62 -2 78 -3
24 -1 35 6 57 39 15 22 28 46 28 53 0 6 5 12 10 12 6 0 10 7 10 15 0 8 3 15 8
15 4 0 16 20 27 45 11 25 23 45 28 45 4 0 7 7 7 15 0 8 5 15 10 15 6 0 10 7
10 15 0 23 28 18 36 -7 5 -13 7 -26 6 -30 -1 -5 4 -8 12 -8 7 0 19 -13 26 -30
7 -16 17 -30 22 -30 5 0 7 -4 4 -9 -3 -5 1 -14 9 -21 8 -7 15 -19 15 -26 0 -8
4 -14 8 -14 5 0 15 -12 23 -27 28 -55 52 -68 118 -65 72 4 73 -4 -21 147 -38
61 -75 124 -83 141 -7 17 -21 36 -29 44 -9 7 -16 19 -16 26 0 8 -4 14 -9 14
-5 0 -4 14 2 30 6 17 15 30 19 30 4 0 8 7 8 15 0 7 8 18 18 24 9 5 15 11 12
13 -3 2 15 32 40 67 25 36 44 68 42 73 -1 4 2 8 8 8 5 0 10 7 10 15 0 8 5 15
10 15 6 0 10 7 10 15 0 8 5 15 11 15 5 0 8 4 4 9 -3 6 3 14 12 20 10 5 15 13
11 17 -5 4 -3 13 3 21 9 11 -3 13 -69 13 -79 0 -80 0 -92 -30 -7 -16 -17 -30
-23 -30 -6 0 -7 -3 -4 -6 4 -4 -2 -19 -12 -33 -10 -14 -31 -50 -46 -78 -16
-29 -32 -53 -37 -53 -4 0 -8 -5 -8 -11 0 -6 -9 -22 -20 -36 l-20 -26 -1 24
c-1 13 0 29 1 34 1 6 -2 7 -5 3 -8 -7 -39 35 -65 87 -8 17 -25 46 -37 66 -12
20 -19 40 -16 43 4 3 1 6 -5 6 -7 0 -12 9 -12 20 0 18 -7 20 -85 20 -47 0 -85
-4 -85 -10z"/>
</g>
</svg>
